<?xml version="1.0" standalone="no"?><!DOCTYPE svg PUBLIC "-//W3C//DTD SVG 1.1//EN" "http://www.w3.org/Graphics/SVG/1.1/DTD/svg11.dtd"><svg t="1642490722480" class="icon" viewBox="0 0 1024 1024" version="1.1" xmlns="http://www.w3.org/2000/svg" p-id="8099" xmlns:xlink="http://www.w3.org/1999/xlink" width="200" height="200"><defs><style type="text/css"></style></defs><path d="M448 608L608 192h384l-64 160h-192l-64 128h192l-192 416h-320l64-160H576l64-128H448z" fill="#F8B304" p-id="8100"></path><path d="M672 928h-320c-12.8 0-19.2-6.4-25.6-12.8-6.4-12.8-6.4-19.2-6.4-32l64-160c6.4-12.8 19.2-19.2 32-19.2h140.8l32-64H448c-12.8 0-19.2-6.4-25.6-12.8s-6.4-19.2-6.4-32L576 179.2c6.4-12.8 19.2-19.2 32-19.2h384c12.8 0 19.2 6.4 25.6 12.8s6.4 19.2 6.4 32l-64 160c-6.4 12.8-19.2 19.2-32 19.2h-172.8l-32 64h140.8c12.8 0 19.2 6.4 25.6 12.8s6.4 19.2 0 32l-192 416c0 12.8-12.8 19.2-25.6 19.2z m-275.2-64h249.6L812.8 512h-140.8c-12.8 0-19.2-6.4-25.6-12.8-6.4-6.4-6.4-19.2 0-32l64-128c0-12.8 12.8-19.2 25.6-19.2h172.8l38.4-96h-320L492.8 576H640c12.8 0 19.2 6.4 25.6 12.8 6.4 6.4 6.4 19.2 0 32l-64 128c0 12.8-12.8 19.2-25.6 19.2H435.2l-38.4 96z" p-id="8101"></path><path d="M256 192H64l230.4 556.8c19.2 51.2 96 51.2 121.6 0L640 192H448L352 480 256 192z" fill="#AECFFF" p-id="8102"></path><path d="M352 825.6c-38.4 0-76.8-25.6-89.6-57.6L32 204.8c-6.4-12.8 0-19.2 0-32 12.8-6.4 19.2-12.8 32-12.8h192c12.8 0 25.6 6.4 32 19.2l64 198.4 64-198.4c6.4-12.8 19.2-19.2 32-19.2h192c12.8 0 19.2 6.4 25.6 12.8 6.4 6.4 6.4 19.2 0 32l-230.4 556.8c-6.4 38.4-44.8 64-83.2 64zM108.8 224l211.2 512c6.4 19.2 25.6 19.2 32 19.2s19.2 0 32-19.2l211.2-512H473.6L384 492.8c-12.8 25.6-51.2 25.6-64 0L230.4 224H108.8z" p-id="8103"></path></svg>